<svg width="24" height="24" viewBox="0 0 24 24" fill="none" xmlns="http://www.w3.org/2000/svg">
<path fill-rule="evenodd" clip-rule="evenodd" d="M20.9996 4C21.1822 3.99994 21.3614 4.04987 21.5176 4.14439C21.6738 4.2389 21.8012 4.37439 21.8859 4.53616C21.9706 4.69793 22.0094 4.8798 21.9981 5.06205C21.9867 5.2443 21.9257 5.41997 21.8216 5.57L17.3676 12L21.8216 18.43C21.9257 18.58 21.9867 18.7557 21.9981 18.9379C22.0094 19.1202 21.9706 19.3021 21.8859 19.4638C21.8012 19.6256 21.6738 19.7611 21.5176 19.8556C21.3614 19.9501 21.1822 20.0001 20.9996 20H7.84664C7.68509 20.0001 7.52592 19.961 7.38277 19.8861C7.23961 19.8112 7.11673 19.7027 7.02464 19.57L2.17764 12.57C2.06152 12.4026 1.99929 12.2037 1.99929 12C1.99929 11.7963 2.06152 11.5974 2.17764 11.43L7.02464 4.43C7.11673 4.29726 7.23961 4.1888 7.38277 4.11392C7.52592 4.03903 7.68509 3.99994 7.84664 4H20.9996Z" fill="white"/>
</svg>
