<svg width="24" height="24" viewBox="0 0 24 24" fill="none" xmlns="http://www.w3.org/2000/svg">
<path d="M7.55598 8.5H15.556M7.55598 12H12M19.111 5H4.88998C4.65492 4.99992 4.42917 5.0918 4.26098 5.256C4.1788 5.33681 4.11349 5.43315 4.06886 5.53941C4.02423 5.64567 4.00115 5.75975 4.00098 5.875V15.125C4.00098 15.357 4.09498 15.58 4.26098 15.744C4.42917 15.9082 4.65492 16.0001 4.88998 16H8.99998L12 20L15 16H19.111C19.346 16.0001 19.5718 15.9082 19.74 15.744C19.8222 15.6632 19.8875 15.5669 19.9321 15.4606C19.9767 15.3543 19.9998 15.2403 20 15.125V5.875C19.9998 5.75975 19.9767 5.64567 19.9321 5.53941C19.8875 5.43315 19.8222 5.33681 19.74 5.256C19.5715 5.09156 19.3464 4.99966 19.111 5Z" stroke="white" stroke-width="2" stroke-linecap="round" stroke-linejoin="round"/>
</svg>
