<svg width="24" height="24" viewBox="0 0 24 24" fill="none" xmlns="http://www.w3.org/2000/svg">
<path d="M10 2C7.87827 2 5.84344 2.84285 4.34315 4.34315C2.84285 5.84344 2 7.87827 2 10C2 12.1217 2.84285 14.1566 4.34315 15.6569C5.84344 17.1571 7.87827 18 10 18C12.1217 18 14.1566 17.1571 15.6569 15.6569C17.1571 14.1566 18 12.1217 18 10C18 7.87827 17.1571 5.84344 15.6569 4.34315C14.1566 2.84285 12.1217 2 10 2Z" fill="white"/>
<path fill-rule="evenodd" clip-rule="evenodd" d="M21.7074 21.7069C21.5199 21.8944 21.2656 21.9997 21.0004 21.9997C20.7352 21.9997 20.4809 21.8944 20.2934 21.7069L16.7934 18.2069C16.6112 18.0183 16.5105 17.7657 16.5127 17.5035C16.515 17.2413 16.6202 16.9905 16.8056 16.8051C16.991 16.6197 17.2418 16.5145 17.504 16.5122C17.7662 16.51 18.0188 16.6108 18.2074 16.7929L21.7074 20.2929C21.8949 20.4804 22.0002 20.7348 22.0002 20.9999C22.0002 21.2651 21.8949 21.5194 21.7074 21.7069Z" fill="white"/>
</svg>
