<svg width="24" height="24" viewBox="0 0 24 24" fill="none" xmlns="http://www.w3.org/2000/svg">
<path d="M12.7501 20.66L18.9341 13.562C21.6111 10.678 21.4931 7.05598 19.6881 4.85698C18.7901 3.76198 17.4821 3.04098 15.9681 3.00198C14.6751 2.96798 13.3161 3.43198 12.0051 4.44398C10.6901 3.43198 9.3271 2.96798 8.0321 3.00198C6.5171 3.04198 5.2071 3.76198 4.3081 4.85698C2.5021 7.05798 2.3931 10.68 5.0801 13.563L11.2631 20.66C11.4531 20.876 11.7231 21 12.0061 21C12.1469 20.9988 12.2859 20.9679 12.4139 20.9093C12.542 20.8507 12.6562 20.7658 12.7491 20.66H12.7501Z" fill="white"/>
</svg>
