<svg width="24" height="24" viewBox="0 0 24 24" fill="none" xmlns="http://www.w3.org/2000/svg">
<path fill-rule="evenodd" clip-rule="evenodd" d="M3.00036 4C2.81776 3.99994 2.63862 4.04987 2.48239 4.14439C2.32615 4.2389 2.19878 4.37439 2.11408 4.53616C2.02938 4.69793 1.9906 4.8798 2.00193 5.06205C2.01326 5.2443 2.07427 5.41997 2.17836 5.57L6.63236 12L2.17836 18.43C2.07427 18.58 2.01326 18.7557 2.00193 18.9379C1.9906 19.1202 2.02938 19.3021 2.11408 19.4638C2.19878 19.6256 2.32615 19.7611 2.48239 19.8556C2.63862 19.9501 2.81776 20.0001 3.00036 20H16.1534C16.3149 20.0001 16.4741 19.961 16.6172 19.8861C16.7604 19.8112 16.8833 19.7027 16.9754 19.57L21.8224 12.57C21.9385 12.4026 22.0007 12.2037 22.0007 12C22.0007 11.7963 21.9385 11.5974 21.8224 11.43L16.9754 4.43C16.8833 4.29726 16.7604 4.1888 16.6172 4.11392C16.4741 4.03903 16.3149 3.99994 16.1534 4H3.00036Z" fill="white"/>
</svg>
