<svg width="24" height="24" viewBox="0 0 24 24" fill="none" xmlns="http://www.w3.org/2000/svg">
<path d="M18.011 12.9999H20C19.633 15.5549 17.68 17.6829 15.023 18.6159V19.9999H8.977V18.6159C6.32 17.6829 4.367 15.5559 4 12.9999H18.011ZM18.011 12.9999C18.4807 12.9982 18.9349 12.8312 19.2938 12.5282C19.6527 12.2252 19.8936 11.8055 19.9741 11.3427C20.0546 10.8799 19.9697 10.4036 19.7341 9.99714C19.4986 9.59072 19.1276 9.28016 18.686 9.11991M18.011 12.9999H18M18.686 9.11991C18.472 9.04291 18.24 8.99991 18 8.99991M18.686 9.11991C19.522 8.08691 19.439 6.44991 18.406 5.61391C17.9095 5.21244 17.2739 5.02444 16.6388 5.09119C16.0038 5.15794 15.4212 5.47398 15.019 5.96991C14.726 4.46791 13.271 3.81591 11.769 4.10991C11.4117 4.17937 11.0717 4.31855 10.7682 4.51951C10.4648 4.72046 10.2039 4.97925 10.0005 5.28108C9.79712 5.5829 9.65521 5.92185 9.58289 6.27855C9.51056 6.63525 9.50924 7.0027 9.579 7.35991C8.98 6.17291 7.619 5.26391 6.155 6.00091C4.967 6.59991 4.45 8.19191 5.049 9.37991M5.049 9.37991C4.371 9.66491 4 10.3359 4 11.1169C4 12.1569 4.843 12.9999 5.883 12.9999M5.049 9.37991C5.336 9.25991 6.145 8.97991 7.094 9.72191M12.369 8.83091C12.8514 8.61056 13.4016 8.59086 13.8986 8.77614C14.3956 8.96142 14.7986 9.33651 15.019 9.81891" stroke="white" stroke-width="2" stroke-linecap="round" stroke-linejoin="round"/>
</svg>
