<svg width="386" height="513" viewBox="0 0 386 513" fill="none" xmlns="http://www.w3.org/2000/svg">
<g clip-path="url(#clip0_44_37)">
<path d="M57.667 483.374C57.667 499.298 44.756 512.208 28.834 512.208C12.91 512.208 0 499.298 0 483.374V28.833C0 12.91 12.91 2.81681e-05 28.834 2.81681e-05C34.8358 -0.008376 40.6893 1.864 45.572 5.35403L194.146 96.174L342.074 4.39203C355.572 -3.94097 373.274 0.244029 381.608 13.741C384.415 18.274 385.899 23.5014 385.892 28.833H386V483.374C386 499.298 373.09 512.208 357.166 512.208C341.244 512.208 328.333 499.298 328.333 483.374V240.374L192.879 159.741L57.667 242.815V483.374ZM328.333 173.61V80.528L251.767 128.033L328.333 173.61ZM135.172 127.543L57.667 80.169V175.162L135.172 127.543Z" fill="white"/>
</g>
<defs>
<clipPath id="clip0_44_37">
<rect width="386" height="512.208" fill="white"/>
</clipPath>
</defs>
</svg>
