<svg width="512" height="512" viewBox="0 0 512 512" fill="none" xmlns="http://www.w3.org/2000/svg">
<g clip-path="url(#clip0_37_2)">
<path d="M256.001 0C326.41 0 390.416 28.799 436.809 75.192C483.203 121.585 512 185.591 512 256.001C512 326.41 483.203 390.416 436.809 436.808C390.416 483.202 326.41 512 256.001 512C185.592 512 121.585 483.202 75.192 436.808C28.799 390.416 0 326.41 0 256.001C0 185.59 28.798 121.585 75.192 75.192C121.585 28.798 185.59 0 256.001 0ZM179.074 214.573L227.619 184.749L179.074 155.075V214.573ZM284.891 185.054L332.926 213.648V155.25L284.891 185.054ZM332.926 246.204L255.91 200.357L179.074 247.563V381.962C179.074 389.727 172.779 396.022 165.015 396.022C157.25 396.022 150.954 389.727 150.954 381.962V130.042C150.954 122.278 157.25 115.982 165.015 115.982C168.058 115.982 170.875 116.95 173.177 118.593L256.641 169.612L339.627 118.124C346.208 114.06 354.841 116.101 358.904 122.683C360.273 124.893 360.997 127.442 360.994 130.042H361.046V381.962C361.046 389.727 354.751 396.022 346.986 396.022C339.221 396.022 332.926 389.727 332.926 381.962V246.204ZM420.086 91.914C377.97 49.798 319.883 23.654 256.001 23.654C192.116 23.654 134.03 49.798 91.914 91.914C49.798 134.03 23.654 192.116 23.654 256.001C23.654 319.883 49.798 377.97 91.914 420.086C134.03 462.203 192.117 488.346 256.001 488.346C319.885 488.346 377.971 462.203 420.086 420.086C462.203 377.971 488.347 319.885 488.347 256.001C488.347 192.117 462.203 134.03 420.086 91.914Z" fill="white"/>
</g>
<defs>
<clipPath id="clip0_37_2">
<rect width="512" height="512" fill="white"/>
</clipPath>
</defs>
</svg>
