<svg width="24" height="24" viewBox="0 0 24 24" fill="none" xmlns="http://www.w3.org/2000/svg">
<g clip-path="url(#clip0_42_35)">
<path d="M10.3832 0C10.5036 0.00881786 10.5036 0.00881786 10.5976 0.102875C10.6193 0.281153 10.5913 0.409577 10.5271 0.573161C10.3804 0.98972 10.405 1.43966 10.5915 1.83779C10.8115 2.24923 11.0415 2.46525 11.4787 2.62754C11.5336 2.64812 11.5886 2.66869 11.6452 2.68989C11.6871 2.70527 11.729 2.72064 11.7721 2.73647C11.771 2.6496 11.771 2.6496 11.7699 2.56097C11.7674 2.34659 11.7657 2.13222 11.7644 1.91784C11.7637 1.82496 11.7627 1.73208 11.7615 1.6392C11.7598 1.50589 11.759 1.3726 11.7584 1.23928C11.7577 1.19759 11.7569 1.15589 11.7562 1.11294C11.7562 1.05505 11.7562 1.05505 11.7561 0.995981C11.7557 0.944914 11.7557 0.944914 11.7552 0.892815C11.7721 0.808304 11.7721 0.808304 11.9131 0.714246C12.0692 0.72949 12.1296 0.742829 12.242 0.855332C12.2502 0.997033 12.2528 1.13436 12.2511 1.27602C12.2509 1.33845 12.2509 1.33845 12.2507 1.40214C12.2502 1.53536 12.249 1.66857 12.2478 1.80178C12.2474 1.89198 12.2469 1.98218 12.2466 2.07238C12.2455 2.29375 12.2439 2.51511 12.242 2.73647C12.3327 2.69924 12.4233 2.66186 12.514 2.62441C12.5897 2.59321 12.5897 2.59321 12.667 2.56138C13.0123 2.41197 13.267 2.20021 13.429 1.85873C13.5972 1.40936 13.6355 0.977126 13.4577 0.526132C13.4391 0.486364 13.4206 0.446595 13.4015 0.405621C13.3601 0.257193 13.3933 0.189871 13.4635 0.0558464C13.5105 0.00881786 13.5105 0.00881786 13.6544 0.00587857C13.7227 0.00733352 13.7227 0.00733352 13.7924 0.00881786C14.0971 0.501267 14.1933 0.976431 14.0994 1.55415C14.0229 1.875 13.8861 2.1376 13.6984 2.40727C13.6674 2.45229 13.6674 2.45229 13.6357 2.49821C13.2934 2.94275 12.8153 3.09168 12.289 3.25379C12.2734 3.84353 12.2579 4.43327 12.242 5.04087C12.6243 5.03715 12.6243 5.03715 13.0066 5.0324C13.0541 5.03217 13.1015 5.03193 13.1504 5.03169C13.1991 5.0312 13.2479 5.0307 13.2981 5.0302C13.4165 5.04087 13.4165 5.04087 13.5105 5.13493C13.5223 5.27602 13.5223 5.27602 13.5105 5.4171C13.4165 5.51116 13.4165 5.51116 13.2981 5.52184C13.225 5.5211 13.225 5.5211 13.1504 5.52035C13.0977 5.52004 13.045 5.51974 12.9908 5.51943C12.9079 5.51824 12.9079 5.51824 12.8234 5.51704C12.7678 5.51661 12.7122 5.51619 12.6549 5.51575C12.5173 5.51464 12.3796 5.51295 12.242 5.51116C12.242 5.77499 12.242 6.03882 12.242 6.31065C12.3217 6.30901 12.4015 6.30737 12.4837 6.30569C12.5881 6.30436 12.6925 6.30308 12.797 6.30183C12.8496 6.30065 12.9022 6.29946 12.9563 6.29825C13.032 6.29756 13.032 6.29756 13.1091 6.29687C13.1789 6.29576 13.1789 6.29576 13.25 6.29463C13.3696 6.31065 13.3696 6.31065 13.4552 6.37305C13.5407 6.49475 13.5289 6.58981 13.5105 6.7339C13.3508 6.84047 13.2961 6.83913 13.1091 6.83715C13.0335 6.83669 13.0335 6.83669 12.9563 6.83623C12.8774 6.83504 12.8774 6.83504 12.797 6.83384C12.7438 6.83341 12.6907 6.83299 12.6359 6.83255C12.5046 6.83144 12.3733 6.82976 12.242 6.82796C12.242 7.09179 12.242 7.35562 12.242 7.62745C12.3257 7.62635 12.4094 7.62526 12.4956 7.62414C12.6049 7.62326 12.7141 7.6224 12.8234 7.62157C12.8786 7.62078 12.9339 7.61999 12.9908 7.61918C13.0698 7.61872 13.0698 7.61872 13.1504 7.61826C13.1991 7.61777 13.2479 7.61728 13.2981 7.61677C13.4165 7.62745 13.4165 7.62745 13.5105 7.7215C13.5223 7.86259 13.5223 7.86259 13.5105 8.00367C13.4165 8.09773 13.4165 8.09773 13.2981 8.10841C13.2493 8.10792 13.2006 8.10742 13.1504 8.10692C13.103 8.10668 13.0555 8.10645 13.0066 8.1062C12.9461 8.10535 12.8857 8.10449 12.8234 8.10361C12.6315 8.10167 12.4397 8.09973 12.242 8.09773C12.2575 8.68747 12.273 9.27721 12.289 9.88482C12.4595 9.93138 12.63 9.97793 12.8058 10.0259C13.0407 10.1523 13.0407 10.1523 13.1405 10.2146C13.2328 10.272 13.2328 10.272 13.3696 10.261C13.478 10.1655 13.5788 10.0691 13.6797 9.96601C13.7097 9.93597 13.7396 9.90592 13.7704 9.87496C13.8337 9.81131 13.8968 9.74749 13.9597 9.68352C14.0563 9.58541 14.1533 9.4878 14.2505 9.39028C14.3118 9.32846 14.3731 9.26662 14.4344 9.20474C14.4635 9.17539 14.4926 9.14605 14.5226 9.11581C14.6683 8.9727 14.6683 8.9727 14.779 8.80316C14.7202 8.80534 14.6613 8.80752 14.6007 8.80977C14.5231 8.81154 14.4455 8.81325 14.3679 8.81492C14.3292 8.81649 14.2904 8.81807 14.2505 8.81969C13.9629 8.82434 13.9629 8.82434 13.8119 8.71608C13.7454 8.61505 13.7454 8.61505 13.7513 8.4916C13.7924 8.3799 13.7924 8.3799 13.8864 8.28585C14.2141 8.17386 14.5842 8.201 14.8965 8.33875C14.9328 8.3573 14.9692 8.37585 15.0066 8.39497C15.1085 8.43837 15.1085 8.43837 15.21 8.39019C15.2975 8.3318 15.3662 8.26956 15.4368 8.19179C15.3438 7.95964 15.154 7.82139 14.9725 7.65721C14.873 7.53339 14.873 7.53339 14.8499 7.38312C14.8613 7.31783 14.8613 7.31783 14.873 7.25122C15.014 7.15716 15.014 7.15716 15.1217 7.15698C15.306 7.2254 15.4125 7.34784 15.5455 7.4893C15.5713 7.516 15.5971 7.54271 15.6237 7.57022C15.6871 7.63591 15.75 7.70216 15.8127 7.76853C15.9212 7.67541 16.0297 7.5823 16.1415 7.48636C16.1212 7.43689 16.1212 7.43689 16.1004 7.38642C15.9992 7.12734 15.9406 6.91781 15.9419 6.63691C15.9416 6.58107 15.9414 6.52524 15.9411 6.46771C15.9531 6.31653 15.9829 6.21148 16.0476 6.0755C16.1561 6.05998 16.2646 6.04446 16.3765 6.02847C16.474 6.13533 16.517 6.1893 16.5192 6.33655C16.5128 6.37941 16.5064 6.42227 16.4998 6.46643C16.4732 6.68021 16.4753 6.8525 16.5174 7.0631C16.8493 6.78506 17.1526 6.47974 17.4571 6.1725C17.5074 6.12188 17.5578 6.07127 17.6081 6.02067C17.7302 5.89799 17.8521 5.77516 17.9739 5.65225C17.9596 5.62358 17.9452 5.59491 17.9305 5.56538C17.601 4.90554 17.4373 4.33078 17.6714 3.60062C17.9029 3.02893 18.319 2.60312 18.8768 2.3472C18.9863 2.30275 19.0765 2.26949 19.1954 2.26619C19.3041 2.31616 19.3041 2.31616 19.3834 2.40727C19.3865 2.50128 19.3868 2.59545 19.3834 2.68945C19.3128 2.72364 19.3128 2.72364 19.2408 2.75852C18.7073 3.02452 18.3665 3.2843 18.1618 3.86516C18.0287 4.29803 18.1272 4.72952 18.3028 5.13493C18.3338 5.16597 18.3648 5.19701 18.3967 5.22899C18.4323 5.19219 18.4678 5.1554 18.5044 5.11749C18.6367 4.98078 18.7698 4.84486 18.9031 4.70916C18.9607 4.65039 19.018 4.5914 19.0751 4.53221C19.1574 4.44701 19.2404 4.36261 19.3235 4.27831C19.3614 4.23856 19.3614 4.23856 19.4001 4.198C19.5593 4.03852 19.6726 3.96491 19.9002 3.95922C19.9883 4.01212 19.9883 4.01212 20.0411 4.1003C20.0618 4.20459 20.0618 4.20459 20.0411 4.33545C19.9517 4.44545 19.8653 4.53884 19.7636 4.63617C19.7355 4.66402 19.7073 4.69187 19.6783 4.72057C19.5884 4.80929 19.4976 4.89716 19.4069 4.98503C19.3457 5.04508 19.2846 5.10518 19.2235 5.16533C19.0738 5.31259 18.9234 5.45909 18.7726 5.60522C19.1178 5.87244 19.5184 5.93159 19.9472 5.88739C20.3666 5.81274 20.7047 5.60945 20.97 5.27234C21.1026 5.06499 21.205 4.84005 21.3097 4.61762C21.5656 4.60054 21.5656 4.60054 21.6808 4.6764C21.7476 4.78277 21.7422 4.82505 21.7149 4.94682C21.5743 5.47132 21.2067 5.8788 20.7527 6.15799C20.2215 6.44341 19.6886 6.52773 19.1018 6.36594C18.858 6.28228 18.6492 6.18414 18.4437 6.02847C18.2434 6.10614 18.1094 6.25631 17.9616 6.40617C17.9338 6.434 17.906 6.46183 17.8774 6.4905C17.8189 6.54921 17.7605 6.60803 17.7022 6.66697C17.6128 6.75734 17.523 6.84733 17.4331 6.93726C17.3763 6.99438 17.3195 7.05151 17.2627 7.10866C17.2358 7.13566 17.2089 7.16265 17.1812 7.19046C17.044 7.32578 17.044 7.32578 16.9403 7.48636C17.0274 7.49438 17.1145 7.50217 17.2016 7.50987C17.2786 7.51669 17.2786 7.51669 17.3572 7.52365C17.4727 7.53131 17.5799 7.53177 17.6949 7.52457C17.8329 7.53339 17.8329 7.53339 17.9269 7.61569C17.9739 7.7215 17.9739 7.7215 17.9739 7.8185C17.9056 7.95092 17.8248 7.98532 17.692 8.0507C17.3334 8.09883 17.013 8.08161 16.6991 7.89455C16.6111 7.85275 16.6111 7.85275 16.5178 7.88941C16.3989 7.97417 16.3217 8.07467 16.2355 8.19179C16.2757 8.2298 16.3158 8.26781 16.3572 8.30697C16.4096 8.35771 16.4621 8.40848 16.5145 8.45926C16.541 8.48421 16.5675 8.50916 16.5948 8.53486C16.7403 8.67703 16.8414 8.77644 16.8463 8.99127C16.7934 9.07651 16.7934 9.07651 16.7053 9.13236C16.6009 9.15349 16.6009 9.15349 16.4704 9.13236C16.3591 9.05008 16.2677 8.95158 16.1738 8.85019C16.148 8.82327 16.1222 8.79636 16.0956 8.76862C16.0321 8.70227 15.9693 8.63521 15.9066 8.56802C15.7722 8.63195 15.6783 8.69242 15.5778 8.80316C15.5981 8.85263 15.5981 8.85263 15.6189 8.9031C15.7229 9.16922 15.7804 9.38757 15.7833 9.67613C15.7846 9.73633 15.786 9.79652 15.7873 9.85855C15.7625 10.0509 15.7156 10.1274 15.5778 10.261C15.4574 10.2875 15.4574 10.2875 15.3428 10.261C15.2466 10.1755 15.2059 10.1067 15.1907 9.97815C15.188 9.86442 15.1896 9.75162 15.1931 9.63792C15.1937 9.59839 15.1944 9.55886 15.195 9.51814C15.1967 9.42089 15.1992 9.32365 15.2019 9.22642C14.861 9.51123 14.5511 9.82539 14.2387 10.1405C14.1861 10.1934 14.1335 10.2463 14.0809 10.2992C13.9533 10.4274 13.8258 10.5558 13.6984 10.6843C13.7211 10.7235 13.7437 10.7627 13.7671 10.8032C13.8116 10.8825 13.8116 10.8825 13.857 10.9635C13.8864 11.0154 13.9159 11.0672 13.9462 11.1206C14.0273 11.2957 14.0273 11.2957 14.1213 11.7189C14.7105 11.7345 15.2996 11.75 15.9066 11.766C15.9029 11.3833 15.9029 11.3833 15.8982 11.0006C15.8978 10.9293 15.8978 10.9293 15.8975 10.8566C15.897 10.8079 15.8965 10.7591 15.896 10.7089C15.9066 10.5902 15.9066 10.5902 16.0006 10.4962C16.1415 10.4844 16.1415 10.4844 16.2825 10.4962C16.3765 10.5902 16.3765 10.5902 16.3871 10.7089C16.3866 10.7576 16.3861 10.8064 16.3856 10.8566C16.3853 10.9094 16.385 10.9621 16.3847 11.0164C16.3839 11.0717 16.3831 11.127 16.3823 11.184C16.3819 11.2396 16.3815 11.2953 16.3811 11.3526C16.3799 11.4904 16.3783 11.6282 16.3765 11.766C16.64 11.766 16.9036 11.766 17.1752 11.766C17.1735 11.6861 17.1719 11.6063 17.1702 11.524C17.1689 11.4195 17.1676 11.315 17.1664 11.2104C17.1646 11.1315 17.1646 11.1315 17.1628 11.0509C17.1623 11.0004 17.1619 10.9499 17.1614 10.898C17.1607 10.8514 17.1599 10.8049 17.1592 10.7569C17.1752 10.6373 17.1752 10.6373 17.2375 10.5515C17.3591 10.4659 17.4541 10.4778 17.598 10.4962C17.7045 10.656 17.7031 10.7108 17.7012 10.898C17.7009 10.9484 17.7006 10.9989 17.7002 11.0509C17.6995 11.1035 17.6987 11.1562 17.6979 11.2104C17.6974 11.2636 17.697 11.3168 17.6966 11.3716C17.6955 11.5031 17.6938 11.6345 17.692 11.766C17.9556 11.766 18.2191 11.766 18.4907 11.766C18.4896 11.6822 18.4885 11.5984 18.4874 11.5121C18.4865 11.4027 18.4857 11.2933 18.4848 11.184C18.484 11.1287 18.4832 11.0734 18.4824 11.0164C18.4821 10.9637 18.4818 10.911 18.4815 10.8566C18.481 10.8079 18.4805 10.7591 18.48 10.7089C18.4907 10.5902 18.4907 10.5902 18.5847 10.4962C18.7256 10.4844 18.7256 10.4844 18.8666 10.4962C18.9605 10.5902 18.9605 10.5902 18.9712 10.7089C18.9707 10.7576 18.9702 10.8064 18.9697 10.8566C18.9695 10.9041 18.9692 10.9516 18.969 11.0006C18.9681 11.0611 18.9673 11.1216 18.9664 11.184C18.9645 11.376 18.9625 11.5681 18.9605 11.766C19.5652 11.766 20.1699 11.766 20.7929 11.766C20.8084 11.6418 20.8239 11.5176 20.8398 11.3897C21.0526 10.8173 21.4084 10.3447 21.9674 10.0729C22.5336 9.84624 23.0811 9.81229 23.6588 10.0259C23.775 10.0823 23.8788 10.1438 23.9877 10.214C24.0099 10.4643 24.0099 10.4643 23.9201 10.5932C23.7496 10.6556 23.646 10.601 23.4812 10.5366C23.0542 10.3711 22.5526 10.3956 22.1335 10.5722C21.6337 10.8452 21.4348 11.2441 21.2627 11.766C21.347 11.7649 21.347 11.7649 21.433 11.7637C21.6413 11.7612 21.8496 11.7595 22.0579 11.7582C22.1481 11.7575 22.2382 11.7565 22.3284 11.7553C22.458 11.7536 22.5876 11.7528 22.7171 11.7522C22.7575 11.7515 22.7979 11.7507 22.8395 11.75C22.8771 11.75 22.9147 11.75 22.9535 11.7499C23.0031 11.7495 23.0031 11.7495 23.0537 11.749C23.1698 11.7713 23.2125 11.8136 23.2829 11.907C23.2715 12.0642 23.2545 12.1236 23.142 12.2362C23.0004 12.2445 22.8632 12.2471 22.7217 12.2454C22.6801 12.2453 22.6386 12.2452 22.5957 12.245C22.4626 12.2445 22.3296 12.2433 22.1965 12.2421C22.1064 12.2417 22.0162 12.2412 21.9261 12.2408C21.705 12.2398 21.4838 12.2382 21.2627 12.2362C21.2999 12.327 21.3372 12.4178 21.3746 12.5085C21.4058 12.5843 21.4058 12.5843 21.4376 12.6616C21.5869 13.0074 21.7984 13.2622 22.1396 13.4245C22.5885 13.5928 23.0203 13.6311 23.4709 13.4531C23.5106 13.4346 23.5503 13.416 23.5913 13.3969C23.7396 13.3555 23.8068 13.3887 23.9407 13.459C23.9877 13.506 23.9877 13.506 23.9906 13.65C23.9897 13.6956 23.9887 13.7412 23.9877 13.7882C23.4936 14.0945 23.0032 14.2023 22.4246 14.0867C21.8357 13.9238 21.3532 13.6212 21.0424 13.0877C20.8994 12.814 20.8225 12.5902 20.7459 12.2833C20.1567 12.2678 19.5675 12.2522 18.9605 12.2362C18.9642 12.6189 18.9642 12.6189 18.969 13.0016C18.9693 13.0729 18.9693 13.0729 18.9697 13.1456C18.9702 13.1944 18.9707 13.2431 18.9712 13.2934C18.9605 13.412 18.9605 13.412 18.8666 13.506C18.7285 13.5266 18.7285 13.5266 18.5847 13.506C18.3851 13.2895 18.428 13.0143 18.4349 12.7389C18.4355 12.6906 18.4362 12.6423 18.4368 12.5925C18.4385 12.4738 18.441 12.355 18.4437 12.2362C18.1956 12.2362 17.9476 12.2362 17.692 12.2362C17.6936 12.3161 17.6953 12.3959 17.6969 12.4782C17.6983 12.5827 17.6995 12.6872 17.7008 12.7918C17.7026 12.8707 17.7026 12.8707 17.7044 12.9513C17.7048 13.0018 17.7053 13.0523 17.7057 13.1043C17.7065 13.1508 17.7072 13.1973 17.708 13.2453C17.692 13.3649 17.692 13.3649 17.6296 13.4507C17.5081 13.5363 17.4131 13.5244 17.2691 13.506C17.1627 13.3462 17.164 13.2914 17.166 13.1043C17.1663 13.0538 17.1666 13.0033 17.1669 12.9513C17.1677 12.8987 17.1685 12.846 17.1693 12.7918C17.1697 12.7386 17.1701 12.6854 17.1706 12.6306C17.1717 12.4991 17.1734 12.3677 17.1752 12.2362C16.9116 12.2362 16.648 12.2362 16.3765 12.2362C16.3776 12.32 16.3786 12.4038 16.3798 12.4901C16.3806 12.5995 16.3815 12.7089 16.3823 12.8182C16.3831 12.8735 16.3839 12.9288 16.3847 12.9858C16.385 13.0385 16.3853 13.0912 16.3856 13.1456C16.3861 13.1944 16.3866 13.2431 16.3871 13.2934C16.3765 13.412 16.3765 13.412 16.2825 13.506C16.1415 13.5178 16.1415 13.5178 16.0006 13.506C15.9066 13.412 15.9066 13.412 15.896 13.2934C15.8965 13.2446 15.897 13.1958 15.8975 13.1456C15.8977 13.0981 15.8979 13.0506 15.8982 13.0016C15.899 12.9411 15.8999 12.8806 15.9008 12.8182C15.9027 12.6262 15.9046 12.4341 15.9066 12.2362C15.0229 12.2595 15.0229 12.2595 14.1213 12.2833C14.0515 12.5393 14.0515 12.5393 13.9803 12.8006C13.8873 12.9713 13.7943 13.142 13.6984 13.3179C14.1636 13.7835 14.6287 14.2491 15.1079 14.7288C15.22 14.6384 15.22 14.6384 15.2045 14.4778C15.2009 14.3824 15.196 14.2872 15.19 14.192C15.1845 14.0285 15.1898 13.9456 15.2885 13.8124C15.3898 13.7412 15.3898 13.7412 15.5132 13.747C15.6247 13.7882 15.6247 13.7882 15.7187 13.8822C15.8306 14.2102 15.8035 14.5808 15.6658 14.8934C15.6473 14.9297 15.6288 14.9661 15.6097 15.0036C15.5663 15.1056 15.5663 15.1056 15.6145 15.2071C15.6728 15.2947 15.735 15.3635 15.8127 15.4342C16.032 15.349 16.17 15.1698 16.3222 14.998C16.388 14.9281 16.388 14.9281 16.5174 14.8228C16.6806 14.8254 16.7307 14.8482 16.8463 14.9639C16.8713 15.0673 16.8713 15.0673 16.8463 15.199C16.7563 15.3183 16.6499 15.4177 16.5409 15.5194C16.5118 15.5475 16.4826 15.5756 16.4526 15.6046C16.3808 15.6737 16.3082 15.7421 16.2355 15.8104C16.3285 15.9191 16.4216 16.0277 16.5174 16.1396C16.5683 16.1192 16.5683 16.1192 16.6202 16.0985C16.6638 16.081 16.7074 16.0635 16.7523 16.0456C16.7887 16.0297 16.825 16.0138 16.8624 15.9974C17.196 15.8747 17.5491 15.8743 17.8799 15.9985C17.9768 16.0867 17.9768 16.0867 18.0209 16.1866C18.0084 16.3279 17.9817 16.3669 17.8799 16.4688C17.7638 16.4732 17.6521 16.4732 17.5364 16.4688C17.291 16.4611 17.1739 16.4693 16.9403 16.5629C17.4054 17.0285 17.8705 17.494 18.3497 17.9737C18.5668 17.8651 18.7839 17.7565 19.0075 17.6445C19.5414 17.4554 20.0902 17.5229 20.6049 17.7386C21.1012 17.9973 21.4824 18.4108 21.7031 18.9231C21.7351 19.0669 21.7319 19.1514 21.6855 19.2905C21.5916 19.3846 21.5916 19.3846 21.477 19.4022C21.3566 19.3846 21.3566 19.3846 21.2867 19.3067C21.2065 19.1822 21.1475 19.0551 21.0865 18.9202C20.8783 18.4993 20.6138 18.3251 20.1821 18.1618C19.7809 18.028 19.3496 18.0991 18.9657 18.2526C18.8599 18.2999 18.8599 18.2999 18.7726 18.397C18.8299 18.4536 18.8299 18.4536 18.8883 18.5113C19.0298 18.6512 19.1709 18.7914 19.312 18.9317C19.3731 18.9925 19.4343 19.0531 19.4956 19.1136C19.5836 19.2006 19.6714 19.2879 19.759 19.3752C19.7866 19.4023 19.8141 19.4293 19.8424 19.4572C20.0358 19.6507 20.0358 19.6507 20.0881 19.8078C19.9971 19.9342 19.9971 19.9342 19.9002 20.043C19.6581 20.0269 19.5377 19.8921 19.3784 19.7255C19.3519 19.6986 19.3253 19.6716 19.2979 19.6438C19.2134 19.5579 19.1295 19.4713 19.0457 19.3846C18.9612 19.298 18.8766 19.2116 18.7919 19.1253C18.7393 19.0716 18.6868 19.0178 18.6346 18.9638C18.5054 18.8277 18.5054 18.8277 18.3497 18.7262C18.1342 19.3236 18.0332 19.8088 18.2958 20.4043C18.5303 20.8779 18.9049 21.0721 19.3834 21.2657C19.4303 21.3128 19.4303 21.3128 19.445 21.448C19.4303 21.5949 19.4303 21.5949 19.354 21.686C19.2035 21.7534 19.12 21.7251 18.9605 21.689C18.3498 21.4439 17.98 21.0069 17.705 20.4286C17.5079 19.9345 17.5456 19.3538 17.7219 18.8599C17.807 18.6822 17.9165 18.5171 18.0209 18.35C17.5557 17.8844 17.0906 17.4188 16.6114 16.9391C16.4785 17.1386 16.5143 17.329 16.5252 17.5597C16.5319 17.8113 16.5319 17.8113 16.4541 17.9256C16.3426 17.9947 16.2701 17.993 16.1415 17.9737C16.0239 17.8854 16.0012 17.8345 15.9536 17.6916C15.9286 17.312 15.9402 17.0046 16.0946 16.6569C16.1153 16.4768 16.1153 16.4768 16.0329 16.399C16.0067 16.3794 15.9806 16.3597 15.9536 16.3395C15.9071 16.3046 15.8606 16.2697 15.8127 16.2337C15.7747 16.2739 15.7367 16.3141 15.6976 16.3555C15.6469 16.408 15.5962 16.4605 15.5455 16.5129C15.5205 16.5394 15.4956 16.566 15.4699 16.5933C15.3278 16.7391 15.2287 16.8397 15.014 16.845C14.9288 16.7951 14.9288 16.7951 14.873 16.704C14.8407 16.5746 14.8407 16.5746 14.873 16.4218C14.9869 16.2973 15.1167 16.1968 15.2489 16.0926C15.3123 16.0307 15.3755 15.9684 15.4368 15.9045C15.3761 15.7688 15.3119 15.6753 15.2019 15.5753C15.1612 15.5889 15.1205 15.6024 15.0786 15.6164C15.0262 15.6339 14.9739 15.6513 14.92 15.6693C14.8793 15.6868 14.8386 15.7042 14.7967 15.7222C14.481 15.8042 14.1362 15.8156 13.8394 15.6693C13.7454 15.5753 13.7454 15.5753 13.7278 15.4606C13.7454 15.3401 13.7454 15.3401 13.8133 15.2626C13.995 15.1664 14.166 15.1841 14.3679 15.1902C14.4074 15.1909 14.4469 15.1915 14.4876 15.1922C14.5848 15.1938 14.6819 15.1963 14.779 15.199C14.4945 14.8578 14.1807 14.5476 13.8658 14.235C13.813 14.1823 13.7602 14.1296 13.7073 14.077C13.5792 13.9492 13.4509 13.8216 13.3226 13.6941C13.2834 13.7168 13.2442 13.7395 13.2038 13.7628C13.1245 13.8074 13.1245 13.8074 13.0436 13.8529C12.9918 13.8823 12.9401 13.9118 12.8867 13.9421C12.7118 14.0233 12.7118 14.0233 12.289 14.1174C12.2734 14.7071 12.2579 15.2969 12.242 15.9045C12.6243 15.9008 12.6243 15.9008 13.0066 15.896C13.0778 15.8956 13.0778 15.8956 13.1504 15.8953C13.1991 15.8948 13.2479 15.8943 13.2981 15.8938C13.4165 15.9045 13.4165 15.9045 13.5105 15.9985C13.5223 16.1396 13.5223 16.1396 13.5105 16.2807C13.4165 16.3748 13.4165 16.3748 13.2981 16.3854C13.2493 16.3849 13.2006 16.3845 13.1504 16.3839C13.0977 16.3836 13.045 16.3833 12.9908 16.383C12.9355 16.3822 12.8803 16.3814 12.8234 16.3806C12.7678 16.3802 12.7122 16.3798 12.6549 16.3794C12.5173 16.3782 12.3796 16.3766 12.242 16.3748C12.242 16.6386 12.242 16.9024 12.242 17.1742C12.3217 17.1726 12.4015 17.171 12.4837 17.1693C12.5881 17.168 12.6925 17.1667 12.797 17.1654C12.8759 17.1637 12.8759 17.1637 12.9563 17.1618C13.0068 17.1614 13.0572 17.1609 13.1091 17.1605C13.1556 17.1597 13.2021 17.159 13.25 17.1582C13.3696 17.1742 13.3696 17.1742 13.4552 17.2366C13.5407 17.3584 13.5289 17.4534 13.5105 17.5975C13.3508 17.7041 13.2961 17.7027 13.1091 17.7007C13.0587 17.7004 13.0083 17.7001 12.9563 17.6998C12.9037 17.699 12.8511 17.6982 12.797 17.6974C12.7438 17.697 12.6907 17.6966 12.6359 17.6962C12.5046 17.695 12.3733 17.6934 12.242 17.6916C12.242 17.9554 12.242 18.2192 12.242 18.491C12.3257 18.49 12.4094 18.4889 12.4956 18.4877C12.6049 18.4869 12.7141 18.486 12.8234 18.4852C12.8786 18.4844 12.9339 18.4836 12.9908 18.4828C13.0435 18.4825 13.0961 18.4822 13.1504 18.4819C13.1991 18.4814 13.2479 18.4809 13.2981 18.4804C13.4165 18.491 13.4165 18.491 13.5105 18.5851C13.5223 18.7262 13.5223 18.7262 13.5105 18.8673C13.4165 18.9613 13.4165 18.9613 13.2981 18.972C13.2493 18.9715 13.2006 18.971 13.1504 18.9705C13.103 18.9703 13.0555 18.97 13.0066 18.9698C12.9461 18.9689 12.8857 18.9681 12.8234 18.9672C12.6315 18.9653 12.4397 18.9633 12.242 18.9613C12.242 19.5666 12.242 20.1718 12.242 20.7954C12.3815 20.811 12.521 20.8265 12.6648 20.8425C13.1687 21.005 13.6193 21.4254 13.8864 21.8771C14.1496 22.4218 14.1986 22.9671 14.024 23.5486C13.9593 23.7198 13.8758 23.8628 13.7454 23.9934C13.6309 24.0022 13.6309 24.0022 13.5105 23.9934C13.4165 23.8993 13.4165 23.8993 13.4143 23.8075C13.4189 23.7718 13.4235 23.7362 13.4283 23.6995C13.4324 23.6643 13.4365 23.6291 13.4408 23.5929C13.4635 23.4761 13.4635 23.4761 13.5116 23.3407C13.6337 22.95 13.5921 22.5118 13.4345 22.1374C13.1619 21.6371 12.7633 21.4381 12.242 21.2657C12.2427 21.3236 12.2434 21.3816 12.2442 21.4412C12.2468 21.6556 12.2484 21.87 12.2497 22.0844C12.2504 22.1772 12.2514 22.2701 12.2526 22.363C12.2543 22.4963 12.2551 22.6296 12.2557 22.7629C12.2565 22.8046 12.2572 22.8463 12.2579 22.8893C12.258 22.9279 12.258 22.9665 12.258 23.0062C12.2583 23.0403 12.2586 23.0743 12.2589 23.1094C12.242 23.1939 12.242 23.1939 12.101 23.288C11.9449 23.2727 11.8845 23.2594 11.7721 23.1469C11.7639 23.0052 11.7613 22.8678 11.763 22.7262C11.7631 22.6846 11.7632 22.6429 11.7634 22.6001C11.7639 22.4668 11.7651 22.3336 11.7663 22.2004C11.7667 22.1102 11.7672 22.02 11.7676 21.9298C11.7686 21.7085 11.7702 21.4871 11.7721 21.2657C11.6751 21.3008 11.5782 21.3365 11.4814 21.3725C11.4275 21.3923 11.3735 21.4121 11.3179 21.4325C10.9366 21.599 10.7153 21.867 10.5447 22.2394C10.3876 22.6522 10.4055 23.1194 10.5658 23.5277C10.6111 23.6554 10.6139 23.7657 10.5976 23.8993C10.5036 23.9934 10.5036 23.9934 10.345 23.9993C10.1638 23.943 10.1483 23.9377 10.0661 23.7818C9.85711 23.2745 9.80364 22.7027 9.98478 22.1784C10.2335 21.6041 10.5714 21.2397 11.1144 20.9365C11.4167 20.8434 11.4167 20.8434 11.7252 20.7484C11.7407 20.1587 11.7562 19.5689 11.7721 18.9613C11.3898 18.9651 11.3898 18.9651 11.0075 18.9698C10.96 18.97 10.9126 18.9703 10.8637 18.9705C10.815 18.971 10.7663 18.9715 10.7161 18.972C10.5976 18.9613 10.5976 18.9613 10.5036 18.8673C10.4977 18.6968 10.4977 18.6968 10.5036 18.5381C10.6567 18.447 10.7693 18.4329 10.9463 18.4348C10.9944 18.4351 11.0426 18.4354 11.0922 18.4357C11.1421 18.4365 11.1921 18.4373 11.2436 18.4381C11.2943 18.4386 11.345 18.439 11.3972 18.4394C11.5222 18.4405 11.6472 18.4422 11.7721 18.444C11.7721 18.1957 11.7721 17.9474 11.7721 17.6916C11.6584 17.694 11.6584 17.694 11.5424 17.6965C11.4428 17.6978 11.3432 17.6991 11.2436 17.7004C11.1686 17.7022 11.1686 17.7022 11.0922 17.704C11.044 17.7044 10.9959 17.7049 10.9463 17.7053C10.902 17.7061 10.8577 17.7068 10.8121 17.7076C10.669 17.6886 10.6056 17.6516 10.5036 17.5505C10.4831 17.4064 10.4831 17.4064 10.5036 17.2683C10.6633 17.1617 10.718 17.1631 10.905 17.1651C10.9554 17.1654 11.0058 17.1657 11.0578 17.166C11.1104 17.1668 11.163 17.1676 11.2172 17.1684C11.2703 17.1688 11.3234 17.1692 11.3782 17.1697C11.5095 17.1708 11.6408 17.1724 11.7721 17.1742C11.7721 16.9104 11.7721 16.6466 11.7721 16.3748C11.6466 16.3764 11.6466 16.3764 11.5185 16.3781C11.4092 16.3789 11.3 16.3798 11.1907 16.3806C11.1355 16.3814 11.0803 16.3822 11.0234 16.383C10.9707 16.3833 10.918 16.3836 10.8637 16.3839C10.815 16.3844 10.7663 16.3849 10.7161 16.3854C10.5976 16.3748 10.5976 16.3748 10.5036 16.2807C10.4919 16.1396 10.4919 16.1396 10.5036 15.9985C10.5976 15.9045 10.5976 15.9045 10.7161 15.8938C10.7648 15.8943 10.8135 15.8948 10.8637 15.8953C10.9111 15.8955 10.9586 15.8958 11.0075 15.896C11.068 15.8969 11.1284 15.8977 11.1907 15.8986C11.3826 15.9005 11.5745 15.9025 11.7721 15.9045C11.7566 15.3147 11.7411 14.725 11.7252 14.1174C11.4693 14.0476 11.4693 14.0476 11.2083 13.9763C11.0378 13.8832 10.8673 13.7901 10.6915 13.6941C10.2264 14.1597 9.76128 14.6253 9.28205 15.105C9.37356 15.2184 9.37356 15.2184 9.54303 15.2016C9.64499 15.198 9.74675 15.1931 9.8486 15.1871C10.0167 15.1818 10.1077 15.1842 10.245 15.2859C10.3157 15.3872 10.3157 15.3872 10.3245 15.5077C10.2578 15.6447 10.1894 15.6887 10.047 15.7395C9.67081 15.8233 9.34871 15.7814 9.00749 15.6072C8.90561 15.5638 8.90561 15.5638 8.80415 15.612C8.71664 15.6704 8.64794 15.7326 8.57731 15.8104C8.67029 16.0426 8.86012 16.1808 9.04163 16.345C9.1411 16.4688 9.1411 16.4688 9.16423 16.6191C9.15278 16.6844 9.15278 16.6844 9.1411 16.751C9.00015 16.845 9.00015 16.845 8.89242 16.8452C8.70811 16.7768 8.60159 16.6544 8.46866 16.5129C8.44283 16.4862 8.417 16.4595 8.39039 16.432C8.32697 16.3663 8.26415 16.3 8.20145 16.2337C8.09291 16.3268 7.98438 16.4199 7.87257 16.5158C7.93651 16.7133 7.93651 16.7133 8.0159 16.9047C8.07065 17.0624 8.07464 17.1957 8.07518 17.3624C8.07597 17.4186 8.07675 17.4749 8.07756 17.5328C8.05781 17.7165 8.00403 17.8421 7.87257 17.9737C7.75804 17.9825 7.75804 17.9825 7.63765 17.9737C7.54369 17.8797 7.54369 17.8797 7.53616 17.7483C7.53767 17.6956 7.53919 17.643 7.54075 17.5887C7.54447 17.3648 7.53755 17.1589 7.4967 16.9391C7.16481 17.2171 6.86147 17.5225 6.55705 17.8297C6.50671 17.8803 6.45636 17.9309 6.406 17.9815C6.28395 18.1042 6.16205 18.227 6.04023 18.35C6.10201 18.5077 6.17027 18.6541 6.25166 18.8026C6.49267 19.2858 6.52534 19.8152 6.37187 20.3334C6.15151 20.9063 5.76504 21.369 5.21216 21.642C5.01757 21.7244 4.88326 21.7681 4.67773 21.689C4.58377 21.5949 4.58377 21.5949 4.56908 21.4803C4.58677 21.3351 4.61369 21.3095 4.72471 21.2187C4.82639 21.177 4.82639 21.177 4.94201 21.1393C5.32453 20.9907 5.58317 20.7597 5.75834 20.3869C5.96186 19.8981 5.93339 19.4775 5.76164 18.9834C5.71744 18.8618 5.71744 18.8618 5.61739 18.7732C5.58019 18.8117 5.54299 18.8501 5.50467 18.8898C5.36648 19.0324 5.22752 19.1741 5.08831 19.3157C5.02818 19.3771 4.96825 19.4387 4.90855 19.5005C4.82268 19.5893 4.73607 19.6773 4.64928 19.7652C4.60948 19.8069 4.60948 19.8069 4.56887 19.8494C4.45461 19.9638 4.38048 20.0379 4.21794 20.0638C4.11394 20.043 4.11394 20.043 4.02878 19.9871C3.94964 19.8662 3.95017 19.8103 3.97299 19.6668C4.06241 19.5568 4.1488 19.4634 4.25048 19.366C4.27864 19.3382 4.30679 19.3103 4.3358 19.2816C4.42575 19.1929 4.51648 19.105 4.60726 19.0172C4.66842 18.9571 4.72954 18.897 4.7906 18.8369C4.9403 18.6896 5.09072 18.5431 5.24153 18.397C4.91247 18.142 4.5245 18.0687 4.11394 18.1148C3.69605 18.1922 3.30374 18.3923 3.03847 18.7334C2.94556 18.8882 2.88186 19.0567 2.8175 19.2251C2.73588 19.364 2.66837 19.388 2.51652 19.4316C2.439 19.354 2.36148 19.2764 2.28161 19.1965C2.40601 18.5985 2.76491 18.1656 3.26825 17.8326C3.73141 17.563 4.24867 17.5025 4.7717 17.5975C5.06755 17.6791 5.32556 17.7883 5.57041 17.9737C5.77073 17.8961 5.90468 17.7459 6.05253 17.596C6.08031 17.5682 6.10809 17.5404 6.13671 17.5117C6.19522 17.453 6.25362 17.3942 6.31191 17.3352C6.40134 17.2449 6.49113 17.1549 6.581 17.0649C6.63782 17.0078 6.69462 16.9507 6.7514 16.8935C6.79177 16.8531 6.79177 16.8531 6.83296 16.8117C6.97014 16.6764 6.97014 16.6764 7.07386 16.5158C6.71042 16.4775 6.71042 16.4775 6.34562 16.4776C6.18118 16.4688 6.18118 16.4688 6.08428 16.3865C6.04023 16.2807 6.04023 16.2807 6.04023 16.1837C6.10852 16.0513 6.18932 16.0169 6.32213 15.9515C6.68075 15.9034 7.0011 15.9206 7.31501 16.1077C7.40303 16.1495 7.40303 16.1495 7.49634 16.1128C7.61525 16.028 7.69239 15.9275 7.7786 15.8104C7.73451 15.769 7.69042 15.7276 7.64499 15.6849C7.5877 15.6298 7.53044 15.5746 7.47321 15.5194C7.44408 15.4922 7.41495 15.465 7.38493 15.437C7.17377 15.2315 7.17377 15.2315 7.1436 15.067C7.16782 14.9639 7.16782 14.9639 7.25004 14.8757C7.35575 14.8228 7.35575 14.8228 7.44747 14.835C7.55511 14.874 7.60618 14.916 7.68537 14.9979C7.7102 15.0232 7.73503 15.0485 7.76061 15.0746C7.78593 15.1011 7.81125 15.1276 7.83733 15.155C7.86337 15.1817 7.88941 15.2084 7.91624 15.2359C7.98031 15.3017 8.04394 15.3679 8.10748 15.4342C8.243 15.3734 8.33639 15.3091 8.43636 15.199C8.42673 15.1701 8.4171 15.1412 8.40718 15.1114C8.24047 14.6108 8.24047 14.6108 8.23668 14.3349C8.23547 14.2822 8.23426 14.2294 8.23301 14.1751C8.25132 13.9949 8.30754 13.8701 8.43636 13.7412C8.54794 13.7265 8.54794 13.7265 8.67127 13.7412C8.76864 13.8262 8.80822 13.8952 8.82337 14.0241C8.82611 14.1378 8.82449 14.2506 8.82103 14.3643C8.8204 14.4038 8.81976 14.4433 8.8191 14.4841C8.81745 14.5813 8.81492 14.6786 8.81222 14.7758C9.15309 14.491 9.46299 14.1768 9.77537 13.8617C9.82797 13.8088 9.88058 13.7559 9.9332 13.703C10.0608 13.5748 10.1883 13.4464 10.3157 13.3179C10.293 13.2747 10.2704 13.2316 10.247 13.1871C10.217 13.1288 10.1871 13.0705 10.1571 13.0122C10.1422 12.984 10.1273 12.9557 10.112 12.9266C10.0974 12.8981 10.0829 12.8696 10.0679 12.8403C10.0546 12.8147 10.0413 12.789 10.0277 12.7627C9.96653 12.6083 9.93305 12.4443 9.89283 12.2833C9.30366 12.2678 8.7145 12.2522 8.10748 12.2362C8.1112 12.6189 8.1112 12.6189 8.11594 13.0016C8.11618 13.0491 8.11641 13.0966 8.11666 13.1456C8.11739 13.2187 8.11739 13.2187 8.11815 13.2934C8.10748 13.412 8.10748 13.412 8.01351 13.506C7.87257 13.5178 7.87257 13.5178 7.73162 13.506C7.63765 13.412 7.63765 13.412 7.62698 13.2934C7.62772 13.2202 7.62772 13.2202 7.62847 13.1456C7.62893 13.0665 7.62893 13.0665 7.62939 12.9858C7.63057 12.9028 7.63057 12.9028 7.63178 12.8182C7.6322 12.7626 7.63263 12.7069 7.63306 12.6496C7.63417 12.5118 7.63586 12.374 7.63765 12.2362C7.37408 12.2362 7.1105 12.2362 6.83894 12.2362C6.84058 12.3161 6.84221 12.3959 6.8439 12.4782C6.84522 12.5827 6.8465 12.6872 6.84775 12.7918C6.84893 12.8444 6.85011 12.8971 6.85133 12.9513C6.85178 13.0018 6.85224 13.0523 6.85271 13.1043C6.85381 13.1741 6.85381 13.1741 6.85494 13.2453C6.83894 13.3649 6.83894 13.3649 6.77495 13.4507C6.66506 13.5297 6.5952 13.5259 6.46308 13.506C6.38612 13.4507 6.38612 13.4507 6.32213 13.3649C6.30613 13.2453 6.30613 13.2453 6.30837 13.1043C6.30882 13.0538 6.30927 13.0033 6.30974 12.9513C6.31092 12.8987 6.3121 12.846 6.31332 12.7918C6.31396 12.7386 6.31459 12.6854 6.31525 12.6306C6.31691 12.4991 6.31944 12.3677 6.32213 12.2362C6.05856 12.2362 5.79498 12.2362 5.52342 12.2362C5.52451 12.32 5.5256 12.4038 5.52673 12.4901C5.52761 12.5995 5.52846 12.7089 5.5293 12.8182C5.53008 12.8735 5.53087 12.9288 5.53168 12.9858C5.53198 13.0385 5.53229 13.0912 5.5326 13.1456C5.53309 13.1944 5.53358 13.2431 5.53409 13.2934C5.52342 13.412 5.52342 13.412 5.42946 13.506C5.28851 13.5178 5.28851 13.5178 5.14756 13.506C5.05359 13.412 5.05359 13.412 5.04293 13.2934C5.04342 13.2446 5.04391 13.1958 5.04442 13.1456C5.04465 13.0981 5.04489 13.0506 5.04513 13.0016C5.04598 12.9411 5.04684 12.8806 5.04772 12.8182C5.04966 12.6262 5.0516 12.4341 5.05359 12.2362C4.16985 12.2595 4.16985 12.2595 3.26825 12.2833C3.22173 12.454 3.17522 12.6247 3.1273 12.8006C3.04931 12.9694 2.95149 13.1184 2.8454 13.2709C2.82469 13.3009 2.80397 13.3309 2.78263 13.3618C2.45496 13.7874 1.95091 14.0128 1.43591 14.1174C0.987255 14.1735 0.503825 14.0983 0.127735 13.8361C0.0264279 13.7412 0.0264279 13.7412 0 13.6206C0.0264279 13.506 0.0264279 13.506 0.0939657 13.412C0.264802 13.3452 0.366813 13.4007 0.532962 13.4656C0.959883 13.6311 1.46154 13.6066 1.8806 13.43C2.38045 13.1571 2.57928 12.7581 2.75143 12.2362C2.69524 12.237 2.63905 12.2377 2.58116 12.2385C2.37286 12.241 2.16456 12.2427 1.95625 12.244C1.86606 12.2447 1.77587 12.2457 1.68568 12.2469C1.55611 12.2486 1.42656 12.2494 1.29698 12.25C1.2566 12.2508 1.21622 12.2515 1.17462 12.2522C1.137 12.2522 1.09939 12.2523 1.06064 12.2523C1.01103 12.2527 1.01103 12.2527 0.960415 12.2532C0.844342 12.2309 0.80165 12.1886 0.731171 12.0952C0.74266 11.938 0.759616 11.8786 0.872119 11.766C1.01368 11.7577 1.15087 11.7551 1.2924 11.7568C1.33398 11.7569 1.37556 11.757 1.4184 11.7572C1.55149 11.7577 1.68456 11.7589 1.81765 11.7601C1.90776 11.7606 1.99787 11.761 2.08798 11.7614C2.30914 11.7624 2.53028 11.764 2.75143 11.766C2.71636 11.6688 2.6807 11.5718 2.6448 11.475C2.62501 11.421 2.60522 11.3669 2.58483 11.3113C2.41845 10.9296 2.15075 10.7081 1.77874 10.5373C1.3818 10.386 0.933274 10.3904 0.540303 10.5491C0.500997 10.5676 0.461691 10.5862 0.421194 10.6053C0.273931 10.647 0.206504 10.6129 0.0734107 10.5432C0.0264279 10.4962 0.0264279 10.4962 0.0234914 10.3522C0.0244605 10.3066 0.0254295 10.261 0.0264279 10.214C0.537565 9.90372 1.01528 9.80637 1.6132 9.90668C2.14244 10.0479 2.61669 10.3776 2.92468 10.8283C3.08031 11.1076 3.08031 11.1076 3.26825 11.7189C3.85741 11.7345 4.44658 11.75 5.05359 11.766C5.04988 11.3833 5.04988 11.3833 5.04513 11.0006C5.04489 10.9531 5.04466 10.9056 5.04442 10.8566C5.04393 10.8079 5.04343 10.7591 5.04293 10.7089C5.05359 10.5902 5.05359 10.5902 5.14756 10.4962C5.28851 10.4844 5.28851 10.4844 5.42946 10.4962C5.52342 10.5902 5.52342 10.5902 5.53409 10.7089C5.5336 10.7576 5.53311 10.8064 5.5326 10.8566C5.5323 10.9094 5.53199 10.9621 5.53168 11.0164C5.5305 11.0994 5.5305 11.0994 5.5293 11.184C5.52887 11.2396 5.52845 11.2953 5.52801 11.3526C5.5269 11.4904 5.52522 11.6282 5.52342 11.766C5.787 11.766 6.05057 11.766 6.32213 11.766C6.3205 11.6861 6.31886 11.6063 6.31718 11.524C6.31585 11.4195 6.31457 11.315 6.31332 11.2104C6.31214 11.1578 6.31096 11.1051 6.30974 11.0509C6.30906 10.9752 6.30906 10.9752 6.30837 10.898C6.30726 10.8281 6.30726 10.8281 6.30613 10.7569C6.32213 10.6373 6.32213 10.6373 6.38447 10.5515C6.50606 10.4659 6.60103 10.4778 6.74498 10.4962C6.85144 10.656 6.8501 10.7108 6.84812 10.898C6.84766 10.9737 6.84766 10.9737 6.8472 11.0509C6.84602 11.1299 6.84602 11.1299 6.84482 11.2104C6.84439 11.2636 6.84397 11.3168 6.84353 11.3716C6.84242 11.5031 6.84074 11.6345 6.83894 11.766C7.10252 11.766 7.36609 11.766 7.63765 11.766C7.63656 11.6822 7.63547 11.5984 7.63435 11.5121C7.63347 11.4027 7.63261 11.2933 7.63178 11.184C7.63099 11.1287 7.6302 11.0734 7.62939 11.0164C7.62909 10.9637 7.62879 10.911 7.62847 10.8566C7.62798 10.8079 7.62749 10.7591 7.62698 10.7089C7.63765 10.5902 7.63765 10.5902 7.73162 10.4962C7.87257 10.4844 7.87257 10.4844 8.01351 10.4962C8.10748 10.5902 8.10748 10.5902 8.11815 10.7089C8.11741 10.782 8.11741 10.782 8.11666 10.8566C8.11642 10.9041 8.11619 10.9516 8.11594 11.0006C8.11509 11.0611 8.11423 11.1216 8.11335 11.184C8.11141 11.376 8.10948 11.5681 8.10748 11.766C8.69664 11.7504 9.28581 11.7349 9.89283 11.7189C9.93934 11.5482 9.98585 11.3775 10.0338 11.2016C10.16 10.9665 10.16 10.9665 10.2223 10.8665C10.2796 10.7742 10.2796 10.7742 10.2687 10.6373C10.1732 10.5287 10.0769 10.4278 9.97395 10.3268C9.92892 10.2819 9.92892 10.2819 9.88298 10.236C9.81939 10.1727 9.75564 10.1095 9.69173 10.0465C9.59371 9.94987 9.4962 9.85273 9.39877 9.75549C9.33702 9.6941 9.27523 9.63274 9.21341 9.57142C9.18409 9.54227 9.15478 9.51312 9.12457 9.48309C8.9816 9.33726 8.9816 9.33726 8.81222 9.22642C8.81321 9.2525 8.81419 9.27858 8.8152 9.30546C8.81912 9.42411 8.82156 9.54274 8.82397 9.66143C8.82633 9.72299 8.82633 9.72299 8.82874 9.7858C8.83339 10.0906 8.83339 10.0906 8.72358 10.2429C8.62429 10.3081 8.62429 10.3081 8.52739 10.3051C8.42372 10.2549 8.36618 10.211 8.29541 10.12C8.17227 9.73563 8.22448 9.35181 8.40443 8.99862C8.44779 8.89664 8.44779 8.89664 8.39965 8.79508C8.34132 8.70749 8.27914 8.63872 8.20145 8.56802C7.96895 8.66154 7.82861 8.85168 7.66279 9.03279C7.54369 9.13236 7.54369 9.13236 7.41687 9.15018C7.30877 9.13236 7.30877 9.13236 7.22068 9.07651C7.16782 8.99127 7.16782 8.99127 7.17021 8.88693C7.23453 8.69827 7.3567 8.59384 7.49964 8.45926C7.52632 8.43341 7.553 8.40755 7.58048 8.38091C7.6461 8.31744 7.7123 8.25455 7.7786 8.19179C7.68557 8.08315 7.59255 7.97452 7.4967 7.86259C7.44728 7.88296 7.44728 7.88296 7.39686 7.90374C7.139 8.00474 6.92757 8.06449 6.64807 8.0654C6.56441 8.06658 6.56441 8.06658 6.47905 8.06779C6.29651 8.04791 6.17101 7.9935 6.04023 7.86259C6.03832 7.76855 6.03823 7.67445 6.04023 7.58042C6.24378 7.49382 6.38194 7.48662 6.59926 7.52273C6.76222 7.54032 6.91259 7.5123 7.07386 7.48636C6.79608 7.15415 6.49106 6.85051 6.18412 6.54579C6.13355 6.4954 6.08298 6.44501 6.03243 6.3946C5.90987 6.27243 5.78716 6.15041 5.66437 6.02847C5.45986 6.10905 5.26745 6.20362 5.0725 6.30495C4.66083 6.49725 4.0248 6.47425 3.60006 6.3371C3.00766 6.07571 2.57573 5.63383 2.32859 5.04087C2.27739 4.89054 2.26534 4.84117 2.33152 4.69698C2.45623 4.58825 2.54378 4.61173 2.70445 4.61762C2.72722 4.66472 2.74999 4.71183 2.77346 4.76036C3.03909 5.29408 3.29871 5.63587 3.87902 5.84036C3.99499 5.87925 3.99499 5.87925 4.11394 5.88739C4.14252 5.89036 4.17111 5.89333 4.20056 5.89639C4.53328 5.91509 4.8398 5.82038 5.14756 5.69927C5.17857 5.66824 5.20958 5.6372 5.24153 5.60522C5.2031 5.56823 5.16467 5.53124 5.12508 5.49313C4.98252 5.35555 4.8409 5.21703 4.69955 5.07821C4.63827 5.0183 4.57675 4.95863 4.51497 4.89924C4.42613 4.81374 4.33824 4.72736 4.25048 4.64076C4.22273 4.61445 4.19499 4.58813 4.1664 4.56101C4.03631 4.43091 3.97835 4.36711 3.94684 4.18116C3.97299 4.05327 3.97299 4.05327 4.11394 3.95922C4.22143 3.93598 4.22143 3.93598 4.34885 3.95922C4.45875 4.04873 4.55205 4.1352 4.64928 4.23698C4.67711 4.26516 4.70493 4.29335 4.7336 4.32239C4.82223 4.41242 4.91002 4.50324 4.9978 4.5941C5.05779 4.65533 5.11783 4.71651 5.17793 4.77762C5.32505 4.92747 5.47141 5.07803 5.61739 5.22899C5.84355 4.93908 5.92772 4.5727 5.91268 4.20612C5.85401 3.74274 5.66064 3.33642 5.29677 3.03922C5.1241 2.92503 4.93624 2.84277 4.7471 2.75962C4.63075 2.68945 4.63075 2.68945 4.5878 2.59576C4.58377 2.50133 4.58377 2.50133 4.63075 2.36025C4.7717 2.26619 4.7717 2.26619 4.86309 2.26766C5.16224 2.33205 5.37552 2.45772 5.61739 2.64242C5.64646 2.66321 5.67553 2.684 5.70548 2.70543C6.11537 3.02138 6.35569 3.5033 6.43959 4.00588C6.50216 4.55003 6.41026 5.01223 6.08777 5.45844C6.02844 5.55359 6.02844 5.55359 6.06654 5.64008C6.16383 5.79282 6.28949 5.91419 6.41756 6.04078C6.44537 6.06859 6.47317 6.0964 6.50181 6.12504C6.56046 6.18361 6.61923 6.24207 6.6781 6.30042C6.76839 6.38993 6.85829 6.47981 6.94814 6.56976C7.0052 6.62664 7.06227 6.6835 7.11937 6.74033C7.14634 6.76727 7.17331 6.79422 7.20109 6.82197C7.33627 6.95928 7.33627 6.95928 7.4967 7.0631C7.53873 6.71184 7.53873 6.71184 7.51432 6.36061C7.4967 6.21659 7.4967 6.21659 7.54662 6.10196C7.67237 6.00045 7.76258 6.01451 7.91955 6.02847C8.09733 6.33954 8.0986 6.61794 8.0605 6.96905C8.01794 7.09033 7.97007 7.19425 7.9045 7.30449C7.86273 7.39259 7.86273 7.39259 7.89936 7.48599C7.98403 7.60502 8.08444 7.68224 8.20145 7.76853C8.23996 7.72834 8.27848 7.68815 8.31817 7.64673C8.36929 7.59424 8.42044 7.54176 8.4716 7.4893C8.49691 7.46278 8.52223 7.43625 8.54831 7.40893C8.57314 7.38362 8.59797 7.35831 8.62356 7.33223C8.65751 7.29714 8.65751 7.29714 8.69215 7.26133C8.77922 7.19326 8.84403 7.17168 8.95317 7.15716C9.05888 7.21007 9.05888 7.21007 9.1411 7.29825C9.16386 7.40277 9.16386 7.40277 9.1411 7.53339C9.0588 7.64478 8.9605 7.73628 8.85921 7.83026C8.83231 7.85611 8.80542 7.88197 8.77772 7.90861C8.71143 7.97219 8.64444 8.03504 8.57731 8.09773C8.63806 8.23338 8.70225 8.32686 8.81222 8.42693C8.85556 8.41247 8.85556 8.41247 8.89976 8.39772C9.3999 8.23085 9.3999 8.23085 9.67553 8.22706C9.72822 8.22585 9.78091 8.22464 9.8352 8.22339C10.0152 8.24171 10.1399 8.29798 10.2687 8.42693C10.2834 8.53862 10.2834 8.53862 10.2687 8.66207C10.1838 8.75953 10.1148 8.79915 9.98603 8.81432C9.87242 8.81706 9.75975 8.81544 9.64617 8.81198C9.60668 8.81134 9.56719 8.8107 9.52651 8.81005C9.42935 8.80839 9.3322 8.80586 9.23507 8.80316C9.51961 9.14436 9.83346 9.45456 10.1483 9.76725C10.2011 9.8199 10.254 9.87256 10.3068 9.92523C10.4349 10.053 10.5632 10.1806 10.6915 10.3081C10.7307 10.2854 10.7699 10.2627 10.8103 10.2394C10.8632 10.2097 10.916 10.18 10.9705 10.1494C11.0223 10.1199 11.0741 10.0904 11.1274 10.0601C11.3023 9.97887 11.3023 9.97887 11.7252 9.88482C11.7407 9.29508 11.7562 8.70534 11.7721 8.09773C11.3898 8.10145 11.3898 8.10145 11.0075 8.1062C10.96 8.10644 10.9126 8.10667 10.8637 8.10692C10.815 8.10741 10.7663 8.1079 10.7161 8.10841C10.5976 8.09773 10.5976 8.09773 10.5036 8.00367C10.4919 7.86259 10.4919 7.86259 10.5036 7.7215C10.5976 7.62745 10.5976 7.62745 10.7161 7.61677C10.7648 7.61726 10.8135 7.61775 10.8637 7.61826C10.9164 7.61856 10.9691 7.61887 11.0234 7.61918C11.1062 7.62036 11.1062 7.62036 11.1907 7.62157C11.2463 7.62199 11.3019 7.62242 11.3592 7.62285C11.4969 7.62396 11.6345 7.62565 11.7721 7.62745C11.7721 7.36362 11.7721 7.09979 11.7721 6.82796C11.6924 6.8296 11.6126 6.83123 11.5304 6.83292C11.426 6.83424 11.3216 6.83553 11.2172 6.83678C11.1646 6.83796 11.112 6.83914 11.0578 6.84036C10.9821 6.84104 10.9821 6.84104 10.905 6.84174C10.8352 6.84285 10.8352 6.84285 10.7641 6.84398C10.6446 6.82796 10.6446 6.82796 10.5589 6.76556C10.4734 6.64385 10.4852 6.54879 10.5036 6.4047C10.6633 6.29814 10.718 6.29948 10.905 6.30146C10.9806 6.30192 10.9806 6.30192 11.0578 6.30238C11.1367 6.30356 11.1367 6.30356 11.2172 6.30477C11.2703 6.30519 11.3234 6.30562 11.3782 6.30605C11.5095 6.30716 11.6408 6.30885 11.7721 6.31065C11.7721 6.04682 11.7721 5.78299 11.7721 5.51116C11.6884 5.51225 11.6047 5.51334 11.5185 5.51447C11.4092 5.51535 11.3 5.5162 11.1907 5.51704C11.1355 5.51783 11.0803 5.51862 11.0234 5.51943C10.9443 5.51988 10.9443 5.51988 10.8637 5.52035C10.815 5.52084 10.7663 5.52133 10.7161 5.52184C10.5976 5.51116 10.5976 5.51116 10.5036 5.4171C10.4919 5.27602 10.4919 5.27602 10.5036 5.13493C10.5976 5.04087 10.5976 5.04087 10.7161 5.0302C10.7891 5.03094 10.7891 5.03094 10.8637 5.03169C10.9111 5.03192 10.9586 5.03216 11.0075 5.0324C11.068 5.03326 11.1284 5.03411 11.1907 5.035C11.3826 5.03694 11.5745 5.03888 11.7721 5.04087C11.7566 4.45114 11.7411 3.8614 11.7252 3.25379C11.5236 3.19171 11.322 3.12963 11.1144 3.06567C10.5039 2.72763 10.127 2.28883 9.92219 1.61073C9.82415 1.12409 9.85923 0.593488 10.1336 0.170479C10.2572 0.00970519 10.2572 0.00970519 10.3832 0ZM12.242 10.4021C12.242 10.728 12.242 11.0539 12.242 11.3897C12.5172 11.1546 12.5172 11.1546 12.7793 10.9077C12.8113 10.8764 12.8432 10.8451 12.8761 10.8129C12.957 10.7375 12.957 10.7375 12.9467 10.6373C12.8823 10.6065 12.8177 10.5762 12.7529 10.5462C12.6989 10.5208 12.6989 10.5208 12.6439 10.4949C12.5005 10.4357 12.5005 10.4357 12.242 10.4021ZM11.4198 10.4874C11.3507 10.5111 11.3507 10.5111 11.2803 10.5353C11.1478 10.5839 11.1478 10.5839 11.0674 10.7313C11.1759 10.8413 11.2846 10.9509 11.3933 11.0605C11.4398 11.1076 11.4398 11.1076 11.4872 11.1557C11.5167 11.1854 11.5463 11.2151 11.5767 11.2457C11.604 11.2733 11.6313 11.3009 11.6594 11.3293C11.7161 11.395 11.7161 11.395 11.7721 11.3897C11.7721 11.0638 11.7721 10.7379 11.7721 10.4021C11.6429 10.4021 11.5416 10.4445 11.4198 10.4874ZM10.6446 11.0605C10.6138 11.125 10.5835 11.1897 10.5535 11.2545C10.5366 11.2905 10.5197 11.3265 10.5023 11.3636C10.4432 11.5072 10.4432 11.5072 10.4096 11.766C10.7352 11.766 11.0608 11.766 11.3963 11.766C11.1613 11.4904 11.1613 11.4904 10.9147 11.2281C10.8835 11.1961 10.8522 11.1642 10.82 11.1313C10.7447 11.0503 10.7447 11.0503 10.6446 11.0605ZM13.1271 11.2029C13.0976 11.2324 13.0681 11.2619 13.0377 11.2923C13.0067 11.3235 12.9757 11.3547 12.9438 11.3868C12.897 11.4333 12.897 11.4333 12.8494 11.4808C12.8052 11.5251 12.8052 11.5251 12.7601 11.5703C12.7328 11.5977 12.7056 11.625 12.6775 11.6532C12.6126 11.7099 12.6126 11.7099 12.6178 11.766C12.9434 11.766 13.269 11.766 13.6045 11.766C13.5233 11.3691 13.5233 11.3691 13.3226 11.0605C13.2366 11.0605 13.1849 11.1452 13.1271 11.2029ZM10.4096 12.2362C10.4927 12.6329 10.4927 12.6329 10.6915 12.9417C10.9391 12.7351 11.178 12.5211 11.3963 12.2833C11.3963 12.2678 11.3963 12.2522 11.3963 12.2362C11.0707 12.2362 10.7451 12.2362 10.4096 12.2362ZM12.6178 12.2362C12.8528 12.5118 12.8528 12.5118 13.0994 12.7741C13.1307 12.8061 13.1619 12.838 13.1941 12.8709C13.2695 12.9519 13.2695 12.9519 13.3696 12.9417C13.4003 12.8772 13.4306 12.8125 13.4606 12.7477C13.4775 12.7117 13.4944 12.6757 13.5118 12.6386C13.5709 12.495 13.5709 12.495 13.6045 12.2362C13.2789 12.2362 12.9533 12.2362 12.6178 12.2362ZM11.3933 12.9358C11.3622 12.9664 11.331 12.997 11.2989 13.0286C11.2695 13.058 11.24 13.0874 11.2096 13.1177C11.1687 13.1583 11.1687 13.1583 11.127 13.1998C11.0573 13.2674 11.0573 13.2674 11.0674 13.3649C11.1318 13.3957 11.1965 13.426 11.2612 13.456C11.2972 13.473 11.3332 13.4899 11.3702 13.5073C11.5136 13.5665 11.5136 13.5665 11.7721 13.6001C11.7721 13.2742 11.7721 12.9483 11.7721 12.6125C11.6427 12.6125 11.4807 12.8484 11.3933 12.9358ZM12.242 12.6125C12.242 12.9384 12.242 13.2643 12.242 13.6001C12.6382 13.517 12.6382 13.517 12.9467 13.3179C12.7404 13.0701 12.5266 12.831 12.289 12.6125C12.2734 12.6125 12.2579 12.6125 12.242 12.6125Z" fill="white"/>
</g>
<defs>
<clipPath id="clip0_42_35">
<rect width="24" height="24" fill="white"/>
</clipPath>
</defs>
</svg>
