<svg xmlns="http://www.w3.org/2000/svg" shape-rendering="geometricPrecision" text-rendering="geometricPrecision" image-rendering="optimizeQuality" fill-rule="evenodd" clip-rule="evenodd" viewBox="0 0 512 512"><path fill-rule="nonzero" d="M256.001 0c70.409 0 134.415 28.799 180.808 75.192C483.203 121.585 512 185.591 512 256.001c0 70.409-28.797 134.415-75.191 180.807C390.416 483.202 326.41 512 256.001 512c-70.409 0-134.416-28.798-180.809-75.192C28.799 390.416 0 326.41 0 256.001 0 185.59 28.798 121.585 75.192 75.192 121.585 28.798 185.59 0 256.001 0zm-76.927 214.573l48.545-29.824-48.545-29.674v59.498zm105.817-29.519l48.035 28.594V155.25l-48.035 29.804zm48.035 61.15l-77.016-45.847-76.836 47.206v134.399c0 7.765-6.295 14.06-14.059 14.06-7.765 0-14.061-6.295-14.061-14.06v-251.92c0-7.764 6.296-14.06 14.061-14.06 3.043 0 5.86.968 8.162 2.611l83.464 51.019 82.986-51.488c6.581-4.064 15.214-2.023 19.277 4.559a13.948 13.948 0 012.09 7.359h.052v251.92c0 7.765-6.295 14.06-14.06 14.06-7.765 0-14.06-6.295-14.06-14.06V246.204zm87.16-154.29c-42.116-42.116-100.203-68.26-164.085-68.26-63.885 0-121.971 26.144-164.087 68.26-42.116 42.116-68.26 100.202-68.26 164.087 0 63.882 26.144 121.969 68.26 164.085 42.116 42.117 100.203 68.26 164.087 68.26 63.884 0 121.97-26.143 164.085-68.26 42.117-42.115 68.261-100.201 68.261-164.085 0-63.884-26.144-121.971-68.261-164.087z"/></svg>