<svg xmlns="http://www.w3.org/2000/svg" shape-rendering="geometricPrecision" text-rendering="geometricPrecision" image-rendering="optimizeQuality" fill-rule="evenodd" clip-rule="evenodd" viewBox="0 0 386 512.208"><path fill-rule="nonzero" d="M57.667 483.374c0 15.924-12.911 28.834-28.833 28.834C12.91 512.208 0 499.298 0 483.374V28.833C0 12.91 12.91 0 28.834 0a28.715 28.715 0 0116.738 5.354l148.574 90.82L342.074 4.392c13.498-8.333 31.2-4.148 39.534 9.349a28.598 28.598 0 014.284 15.092H386v454.541c0 15.924-12.91 28.834-28.834 28.834-15.922 0-28.833-12.91-28.833-28.834v-243l-135.454-80.633-135.212 83.074v240.559zM328.333 173.61V80.528l-76.566 47.505 76.566 45.577zm-193.161-46.067L57.667 80.169v94.993l77.505-47.619z"/></svg>